<?xml version="1.0" encoding="utf-8"?>
<!-- Generator: Adobe Illustrator 24.0.2, SVG Export Plug-In . SVG Version: 6.00 Build 0)  -->
<svg version="1.1" xmlns="http://www.w3.org/2000/svg" xmlns:xlink="http://www.w3.org/1999/xlink" x="0px" y="0px"
	 viewBox="0 0 344 156" style="enable-background:new 0 0 344 156;" xml:space="preserve">
<style type="text/css">
	.st0{fill:url(#SVGID_1_);}
	.st1{fill:url(#SVGID_2_);}
	.st2{fill:url(#SVGID_3_);}
	.st3{fill:url(#SVGID_4_);}
	.st4{fill:url(#SVGID_5_);}
	.st5{fill:url(#SVGID_6_);}
	.st6{fill:url(#SVGID_7_);}
</style>
<g id="Calque_1">
	<g>
		<linearGradient id="SVGID_1_" gradientUnits="userSpaceOnUse" x1="213.0471" y1="87.8632" x2="246.741" y2="87.8632">
			<stop  offset="0" style="stop-color:#FF9900"/>
			<stop  offset="1" style="stop-color:#FF6666"/>
		</linearGradient>
		<path class="st0" d="M238.9,93.6c-1.8-6.5-4.8-8.4-11.6-8.4c-3.1,0-6.2,0.1-9.3,0c-2.5-0.1-4.8-1.7-4.9-3.8
			c-0.2-2.1,2.6-2.1,4.4-2.4c2.9-0.5,5.7-1,8.7-0.9c9.9,0.3,17.5,4.1,20.4,15.4c0.3,1.4-0.3,2.8-1.6,3.4
			C241.9,98.4,240,97.5,238.9,93.6z"/>
		<linearGradient id="SVGID_2_" gradientUnits="userSpaceOnUse" x1="108.7237" y1="87.882" x2="141.4661" y2="87.882">
			<stop  offset="0" style="stop-color:#FF9900"/>
			<stop  offset="1" style="stop-color:#FF6666"/>
		</linearGradient>
		<path class="st1" d="M129.8,85.3c-7.7-1.1-13.3,1.5-15,9.9c-0.4,1.8-1.7,2.6-3.5,2.3c-2.1-0.3-2.6-1.9-2.7-3.8
			c-0.2-5.7,4-11.6,9.9-13.9c6.7-2.6,13.6-1.8,20.4-0.5c0.9,0.2,2.1,0.9,2.4,1.7c0.6,1.4-0.9,2.1-1.8,2.8
			C136.7,86.4,133.3,84.7,129.8,85.3z"/>
		<linearGradient id="SVGID_3_" gradientUnits="userSpaceOnUse" x1="135.0272" y1="102.9938" x2="218.998" y2="102.9938">
			<stop  offset="0" style="stop-color:#FF9900"/>
			<stop  offset="1" style="stop-color:#FF6666"/>
		</linearGradient>
		<path class="st2" d="M218.7,108c-0.1-0.8,0-1.7,0-2.6c0.2-11.1-12.1-25.3-27.5-22.5c-7.3,1.3-14.5,3.5-21.9,1.2
			c-4.4-1.4-8.6-1.4-13.2-1.1c-9.9,0.8-16.8,9.1-19.4,16.4c-3.7,10.2-1.2,18,6.2,24.1c22.8,0,45.7,0,68.5,0
			C217.4,119.9,219.9,114.8,218.7,108z M211.2,113.8c-0.3,3-2.8,3.4-5.5,3.4c-9.7-0.1-19.3,0-29,0c-9.2,0-18.3-0.1-27.5,0.1
			c-4.4,0.1-6.4-1.6-6.2-6.1c0.3-7.6,0.1-15.3,7.9-19.9c5.2-3.1,10.7-2.5,16.1-1.2c7.1,1.7,13.9,1.6,20.9,0
			C207.9,85.7,212.5,99.1,211.2,113.8z"/>
		<linearGradient id="SVGID_4_" gradientUnits="userSpaceOnUse" x1="152.9741" y1="56.0024" x2="201.1429" y2="56.0024">
			<stop  offset="0" style="stop-color:#FF9900"/>
			<stop  offset="1" style="stop-color:#FF6666"/>
		</linearGradient>
		<path class="st3" d="M177.2,33.6c-13.6,0-23.2,9.6-24.2,22.2c-1,13.3,13.6,23.1,24.2,22.5c13.4-0.8,23.9-9.9,23.9-22.4
			C201.2,43.3,190.7,33.6,177.2,33.6z M177.3,71.8c-9.7,0-16.8-6.7-16.7-15.7c0-9.1,7.2-16.2,16.4-16.3c9.6-0.1,16.8,7,16.8,16.4
			C193.8,64.8,186.4,71.8,177.3,71.8z"/>
	</g>
</g>
<g id="Calque_2">
	<linearGradient id="SVGID_5_" gradientUnits="userSpaceOnUse" x1="166.8021" y1="65.0425" x2="188.0805" y2="65.0425">
		<stop  offset="0" style="stop-color:#FF9900"/>
		<stop  offset="1" style="stop-color:#FF6666"/>
	</linearGradient>
	<path class="st4" d="M168.2,62.9c-0.7-0.7-1.8,0.4-1.2,1.1c1.8,2.1,4.9,4,10.4,4c6.1,0,9.1-2.4,10.5-4.8c0.5-0.8-0.6-1.7-1.3-1
		c-1.7,1.7-4.5,3.2-8.8,3.3C172.8,65.7,170.1,64.6,168.2,62.9z"/>
	<linearGradient id="SVGID_6_" gradientUnits="userSpaceOnUse" x1="208.2422" y1="55.8313" x2="242.523" y2="55.8313">
		<stop  offset="0" style="stop-color:#FF9900"/>
		<stop  offset="1" style="stop-color:#FF6666"/>
	</linearGradient>
	<path class="st5" d="M225.5,39.8c-10.3-0.1-17.2,6.2-17.2,15.8c-0.1,9.8,6.5,16.1,16.8,16.2c9.5,0.1,17.5-7.2,17.5-16
		C242.5,47.4,234.5,39.9,225.5,39.8z M225.4,67.4c-6.6,0-11.9-5.3-11.9-11.9s5.3-11.9,11.9-11.9c6.6,0,11.9,5.3,11.9,11.9
		S232,67.4,225.4,67.4z"/>
	<linearGradient id="SVGID_7_" gradientUnits="userSpaceOnUse" x1="111.872" y1="55.8307" x2="146.15" y2="55.8307">
		<stop  offset="0" style="stop-color:#FF9900"/>
		<stop  offset="1" style="stop-color:#FF6666"/>
	</linearGradient>
	<path class="st6" d="M129.5,39.8c-9.4-0.1-17.5,7.2-17.6,15.9c-0.1,8.7,7.8,16,17.4,16.1c10,0.1,16.8-6.3,16.9-15.5
		C146.2,46.7,139.4,39.9,129.5,39.8z M129,67.9c-6.6,0-11.9-5.3-11.9-11.9s5.3-11.9,11.9-11.9c6.6,0,11.9,5.3,11.9,11.9
		S135.6,67.9,129,67.9z"/>
</g>
</svg>
