<?xml version="1.0" encoding="utf-8"?>
<!-- Generator: Adobe Illustrator 24.0.2, SVG Export Plug-In . SVG Version: 6.00 Build 0)  -->
<svg version="1.1" id="Calque_1" xmlns="http://www.w3.org/2000/svg" xmlns:xlink="http://www.w3.org/1999/xlink" x="0px" y="0px"
	 viewBox="0 0 344 156" style="enable-background:new 0 0 344 156;" xml:space="preserve">
<style type="text/css">
	.st0{fill:url(#SVGID_1_);}
	.st1{fill:url(#SVGID_2_);}
	.st2{fill:url(#SVGID_3_);}
</style>
<g>
	<linearGradient id="SVGID_1_" gradientUnits="userSpaceOnUse" x1="105.9482" y1="74.0391" x2="259.973" y2="74.0391">
		<stop  offset="0" style="stop-color:#FF9900"/>
		<stop  offset="1" style="stop-color:#FF6666"/>
	</linearGradient>
	<path class="st0" d="M259.9,95.4c-0.8-2.4-2.5-3.9-4.8-4.8c-6.8-2.5-7.8-3.7-8-10.7c-0.2-10.3-0.1-20.7,0-31
		c0-6.4-0.1-12.8-1.2-19.2c-0.9-5.3-3.1-7.7-8.4-8.6c-1.4-0.2-2.7-0.6-4-1.1c-33.9,0-67.7,0-101.6,0c-0.6,0.5-1.3,0.5-2,0.7
		c-8.7,2-9.4,2.9-10.7,11.5c-1.1,6.8-0.7,13.5-0.8,20.3c-0.1,9.5,0.1,18.9-0.1,28.4c-0.1,4.4-1.3,8.4-6.3,9.3
		c-3.2,0.6-4.7,2.6-6.1,5.1c0,5.4,0,10.8,0,16.1c1.3,5.4,2,10.8,8.1,13.7c4.1,1.9,8.4,2.3,12.6,3c37,0,74.1,0,111.1,0
		c1.1,0.1,2-0.5,3.1-0.6c12.9-1.1,16.7-4.4,19.1-16.6C259.9,105.7,260.1,100.5,259.9,95.4z M133,37.6c0-6.6,1.2-7.8,8-7.8
		c27.9-0.1,55.8-0.1,83.7,0c6.4,0,7.7,1.3,7.8,7.5c0.1,16.5-0.1,33,0.1,49.4c0,4.8-1.9,6.8-6.7,6.7c-14.4-0.1-28.8,0-43.2,0
		c-14,0-28.1,0.1-42.1,0c-6.7,0-7.5-0.8-7.5-7.4C132.9,69.8,132.9,53.7,133,37.6z M244.3,113.9c-3.2,2.6-6.8,3.1-10.6,3.1
		c-17.1,0-34.2,0-51.3,0c-17.1,0-34.2-0.1-51.3,0c-4.8,0-8.9-1.3-12-4.9c-1.5-1.7-2.2-3.8-1.4-6c0.9-2.3,3.1-2.2,5.1-2.2
		c12.4,0.1,25.3-2.3,37.1,0.8c12.8,3.4,25.8,4,37.8,1.6c14.1-2.8,27.8-1.6,41.7-2.5c0.5,0,1.1-0.1,1.6,0c2.5,0.3,5.9-1,6.8,2.7
		C248.5,109.6,246.8,111.9,244.3,113.9z"/>
	<linearGradient id="SVGID_2_" gradientUnits="userSpaceOnUse" x1="152.2097" y1="60.1339" x2="175.9229" y2="60.1339">
		<stop  offset="0" style="stop-color:#FF9900"/>
		<stop  offset="1" style="stop-color:#FF6666"/>
	</linearGradient>
	<path class="st1" d="M175.8,50.2c0,1.8-1.4,2.7-2.6,3.8c-6.4,5.8-6.4,6,0,11.8c1.5,1.4,3.1,2.6,2.6,4.9c-0.6,2.4-2.6,3.3-4.6,4.1
		c-1.2,0.5-2.5,0.3-3.6-0.3c-5.5-3.2-9.7-7.9-14.3-12c-1.5-1.3-1.3-3.6,0.2-4.9c4.7-4.1,8.8-9,14.4-12C170.9,44,175.9,47,175.8,50.2
		z"/>
	<linearGradient id="SVGID_3_" gradientUnits="userSpaceOnUse" x1="189.4216" y1="60.0162" x2="212.6788" y2="60.0162">
		<stop  offset="0" style="stop-color:#FF9900"/>
		<stop  offset="1" style="stop-color:#FF6666"/>
	</linearGradient>
	<path class="st2" d="M212.7,59.7c0,0.4,0,0.5,0,0.7c-0.3,3.2-13.6,14.8-17,14.7c-2.5-0.1-4.6-1.3-5.7-3.5c-1.3-2.3,0.3-3.9,2-5.5
		c6.8-6.1,6.8-6.2,0.2-12.1c-1.7-1.5-3.4-3-2-5.4c1.3-2.2,3.7-4.3,6.2-3.3c6.7,2.6,11.1,8.2,16.1,13.1
		C212.6,58.6,212.6,59.3,212.7,59.7z"/>
</g>
</svg>
